<?xml version="1.0" standalone="no"?><!DOCTYPE svg PUBLIC "-//W3C//DTD SVG 1.1//EN" "http://www.w3.org/Graphics/SVG/1.1/DTD/svg11.dtd"><svg t="1703862074455" class="icon" viewBox="0 0 1024 1024" version="1.1" xmlns="http://www.w3.org/2000/svg" p-id="16802" xmlns:xlink="http://www.w3.org/1999/xlink" width="32" height="32"><path d="M625.9 446.3m-314.6 0a314.6 314.6 0 1 0 629.2 0 314.6 314.6 0 1 0-629.2 0Z" fill="#FFE4CC" p-id="16803"></path><path d="M848.9 361H741.5c-11.8 0-21.4-9.6-21.4-21.4 0-11.8 9.6-21.4 21.4-21.4h107.4c11.8 0 21.4 9.6 21.4 21.4 0 11.8-9.6 21.4-21.4 21.4z" fill="#FFFFFF" p-id="16804"></path><path d="M849 373.2H741.5c-18.5 0-33.6-15.1-33.6-33.6S723 306 741.5 306H849c18.5 0 33.6 15.1 33.6 33.6s-15.1 33.6-33.6 33.6z m-107.5-42.7c-5 0-9.2 4.1-9.2 9.2s4.1 9.2 9.2 9.2H849c5 0 9.2-4.1 9.2-9.2s-4.1-9.2-9.2-9.2H741.5z" fill="#441B00" p-id="16805"></path><path d="M655.1 339.7m-86.2 0a86.2 86.2 0 1 0 172.4 0 86.2 86.2 0 1 0-172.4 0Z" fill="#F88E20" p-id="16806"></path><path d="M655.1 438.1c-54.3 0-98.4-44.2-98.4-98.4s44.2-98.4 98.4-98.4 98.4 44.2 98.4 98.4-44.1 98.4-98.4 98.4z m0-172.5c-40.8 0-74 33.2-74 74s33.2 74 74 74 74-33.2 74-74-33.1-74-74-74z" fill="#441B00" p-id="16807"></path><path d="M97 214.9h114.9v249.6H97z" fill="#F88E20" p-id="16808"></path><path d="M211.9 476.7H97c-6.7 0-12.2-5.5-12.2-12.2V214.9c0-6.7 5.5-12.2 12.2-12.2h114.9c6.7 0 12.2 5.5 12.2 12.2v249.6c0 6.7-5.4 12.2-12.2 12.2z m-102.7-24.4h90.5V227.1h-90.5v225.2z" fill="#441B00" p-id="16809"></path><path d="M460.5 575.5h-83c-13.4 0-24.4-11-24.4-24.4V443.7c0-13.4 11-24.4 24.4-24.4h107.4c13.4 0 24.4 11 24.4 24.4l-24.4 107.4c0 13.4-10.9 24.4-24.4 24.4z" fill="#FFFFFF" p-id="16810"></path><path d="M460.5 587.7h-83c-20.2 0-36.6-16.4-36.6-36.6V443.7c0-20.2 16.4-36.6 36.6-36.6h107.4c20.2 0 36.6 16.4 36.6 36.6 0 0.9-0.1 1.8-0.3 2.7l-24.1 106.2c-0.8 19.5-16.9 35.1-36.6 35.1z m-83-156.2c-6.7 0-12.2 5.5-12.2 12.2v107.4c0 6.7 5.5 12.2 12.2 12.2h83c6.7 0 12.2-5.5 12.2-12.2 0-0.9 0.1-1.8 0.3-2.7l24.1-105.9c-0.6-6.2-5.8-11.1-12.2-11.1H377.5z" fill="#441B00" p-id="16811"></path><path d="M491.7 722.9l-109.2-42.7 43.7-233.9H222.7l-45.5 244.9c-11 9-18 22.6-18 37.8v98.8c0 26.9 22 48.8 48.8 48.8h283.7c26.9 0 48.8-22 48.8-48.8v-56.1c0.1-26.8-20.2-39.5-48.8-48.8z" fill="#F88E20" p-id="16812"></path><path d="M491.7 888.9H208c-33.7 0-61-27.4-61-61V729c0-16.8 6.9-32.6 19-44.1L210.7 444c1.1-5.8 6.1-10 12-10h203.6c3.6 0 7.1 1.6 9.4 4.4 2.3 2.8 3.3 6.5 2.6 10l-41.9 224 99.5 38.9c26.6 8.7 56.9 23.5 56.9 60.3v56.1c0 33.8-27.4 61.2-61.1 61.2zM232.8 458.5l-43.6 235c-0.5 2.8-2 5.4-4.3 7.2-8.6 7-13.5 17.4-13.5 28.4v98.8c0 20.2 16.4 36.6 36.6 36.6h283.7c20.2 0 36.6-16.4 36.6-36.6v-56.1c0-14.4-6.9-26.3-40.4-37.3-0.2-0.1-0.4-0.2-0.7-0.2L378 691.6c-5.5-2.1-8.6-7.8-7.5-13.6l41-219.4H232.8z" fill="#441B00" p-id="16813"></path><path d="M605.4 491H204.2c-27.5 0-49.8-22.3-49.8-49.8V238.1c0-27.5 22.3-49.8 49.8-49.8h401.2c27.5 0 49.8 22.3 49.8 49.8v203.2c-0.1 27.5-22.3 49.7-49.8 49.7z" fill="#FFFFFF" p-id="16814"></path><path d="M605.4 503.2H204.2c-34.2 0-62-27.8-62-62V238.1c0-34.2 27.8-62 62-62h401.2c34.2 0 62 27.8 62 62v203.2c0 34.1-27.8 61.9-62 61.9zM204.2 200.5c-20.7 0-37.5 16.8-37.5 37.5v203.2c0 20.7 16.8 37.5 37.5 37.5h401.2c20.7 0 37.5-16.8 37.5-37.5V238.1c0-20.7-16.8-37.5-37.5-37.5H204.2z" fill="#441B00" p-id="16815"></path><path d="M588 248.6H430.8" fill="#F88E20" p-id="16816"></path><path d="M588 260.8H430.8c-6.7 0-12.2-5.5-12.2-12.2s5.5-12.2 12.2-12.2H588c6.7 0 12.2 5.5 12.2 12.2s-5.5 12.2-12.2 12.2z" fill="#441B00" p-id="16817"></path><path d="M588 305.8H474.8" fill="#F88E20" p-id="16818"></path><path d="M588 318H474.8c-6.7 0-12.2-5.5-12.2-12.2s5.5-12.2 12.2-12.2H588c6.7 0 12.2 5.5 12.2 12.2S594.7 318 588 318z" fill="#441B00" p-id="16819"></path><path d="M588 359.6h-66.7" fill="#F88E20" p-id="16820"></path><path d="M588 371.8h-66.7c-6.7 0-12.2-5.5-12.2-12.2s5.5-12.2 12.2-12.2H588c6.7 0 12.2 5.5 12.2 12.2s-5.5 12.2-12.2 12.2z" fill="#441B00" p-id="16821"></path><path d="M254.7 611.3c-0.6 0-1.2 0-1.9-0.1-6.7-1-11.2-7.3-10.2-13.9l7.1-46c1-6.7 7.3-11.2 13.9-10.2 6.7 1 11.2 7.3 10.2 13.9l-7.1 46c-0.9 5.9-6.1 10.3-12 10.3z" fill="#FFFFFF" p-id="16822"></path><path d="M241.8 682c-0.6 0-1.2 0-1.9-0.1-6.7-1-11.2-7.3-10.2-13.9l4.1-26.9c1-6.7 7.3-11.2 13.9-10.2 6.7 1 11.2 7.3 10.2 13.9l-4.1 26.9c-0.9 6-6.1 10.3-12 10.3z" fill="#FFFFFF" p-id="16823"></path><path d="M465.6 777.6c-1.4 0-2.8-0.2-4.2-0.7l-68.8-25.1c-6.3-2.3-9.6-9.3-7.3-15.7 2.3-6.3 9.3-9.6 15.7-7.3l68.8 25.1c6.3 2.3 9.6 9.3 7.3 15.7-1.8 4.9-6.5 8-11.5 8z" fill="#FFFFFF" p-id="16824"></path></svg>